<svg xmlns="http://www.w3.org/2000/svg" width="1800" height="1100" viewBox="0 0 1800 1100" role="img" aria-labelledby="title desc">
  <title id="title">AgenticROS system flow</title>
  <desc id="desc">System flow showing chat channels and AI agent platforms connecting through AgenticROS to ROS, RealSense, NVIDIA VSLAM, robot skills, motors, batteries, and robot missions.</desc>
  <defs>
    <style>
      .bg { fill: #f5f7fb; }
      .title { font: 800 42px Inter, ui-sans-serif, system-ui, -apple-system, BlinkMacSystemFont, "Segoe UI", sans-serif; fill: #16212f; }
      .subtitle { font: 500 18px Inter, ui-sans-serif, system-ui, -apple-system, BlinkMacSystemFont, "Segoe UI", sans-serif; fill: #526071; }
      .section { font: 800 18px Inter, ui-sans-serif, system-ui, -apple-system, BlinkMacSystemFont, "Segoe UI", sans-serif; fill: #243244; }
      .label { font: 700 15px Inter, ui-sans-serif, system-ui, -apple-system, BlinkMacSystemFont, "Segoe UI", sans-serif; fill: #172231; }
      .text { font: 500 13px Inter, ui-sans-serif, system-ui, -apple-system, BlinkMacSystemFont, "Segoe UI", sans-serif; fill: #435166; }
      .small { font: 600 12px Inter, ui-sans-serif, system-ui, -apple-system, BlinkMacSystemFont, "Segoe UI", sans-serif; fill: #5b6a7f; }
      .tiny { font: 700 11px Inter, ui-sans-serif, system-ui, -apple-system, BlinkMacSystemFont, "Segoe UI", sans-serif; fill: #5b6a7f; }
      .panel { fill: #ffffff; stroke: #d6e0eb; stroke-width: 1.4; }
      .tile { fill: #ffffff; stroke: #c7d2df; stroke-width: 1.5; }
      .messaging { fill: #eaf6ff; stroke: #68a5d9; }
      .agent { fill: #edf4ff; stroke: #7198d8; }
      .core { fill: #fff6d8; stroke: #d6a333; }
      .robot { fill: #eaf8ef; stroke: #5ca976; }
      .device { fill: #fff0ec; stroke: #cd7a67; }
      .skill { fill: #f2ecff; stroke: #8d70ca; }
      .nvidia { fill: #eef9df; stroke: #76b900; }
      .line { fill: none; stroke: #657386; stroke-width: 2.3; }
      .line-blue { fill: none; stroke: #266d9f; stroke-width: 3; }
      .line-green { fill: none; stroke: #4f9568; stroke-width: 2.8; }
      .line-purple { fill: none; stroke: #7a63b8; stroke-width: 2.8; }
      .dash { stroke-dasharray: 8 8; }
      .shadow { filter: drop-shadow(0 10px 20px rgba(22,33,47,0.08)); }
    </style>
    <marker id="arrow" markerWidth="12" markerHeight="12" refX="10" refY="6" orient="auto" markerUnits="strokeWidth">
      <path d="M 0 0 L 12 6 L 0 12 z" fill="#657386"/>
    </marker>
    <marker id="arrowBlue" markerWidth="12" markerHeight="12" refX="10" refY="6" orient="auto" markerUnits="strokeWidth">
      <path d="M 0 0 L 12 6 L 0 12 z" fill="#266d9f"/>
    </marker>
    <marker id="arrowGreen" markerWidth="12" markerHeight="12" refX="10" refY="6" orient="auto" markerUnits="strokeWidth">
      <path d="M 0 0 L 12 6 L 0 12 z" fill="#4f9568"/>
    </marker>
    <marker id="arrowPurple" markerWidth="12" markerHeight="12" refX="10" refY="6" orient="auto" markerUnits="strokeWidth">
      <path d="M 0 0 L 12 6 L 0 12 z" fill="#7a63b8"/>
    </marker>
    <linearGradient id="agenticrosGrad" x1="0" x2="1" y1="0" y2="1">
      <stop offset="0" stop-color="#fff7dc"/>
      <stop offset="0.52" stop-color="#fdf0c3"/>
      <stop offset="1" stop-color="#f7e2a2"/>
    </linearGradient>
  </defs>

  <rect class="bg" x="0" y="0" width="1800" height="1100"/>
  <text class="title" x="70" y="72">AgenticROS System Flow</text>
  <text class="subtitle" x="70" y="104">Messages become agent plans; AgenticROS turns those plans into perception, skills, and safe ROS-powered robot action.</text>

  <rect class="panel shadow" x="52" y="144" width="366" height="826" rx="18"/>
  <text class="section" x="84" y="184">Conversation Channels</text>
  <text class="text" x="84" y="208">Operators assign missions, goals, and questions.</text>

  <rect class="tile messaging" x="88" y="250" width="126" height="82" rx="14"/>
  <circle cx="119" cy="291" r="20" fill="#3a76f0"/>
  <circle cx="119" cy="291" r="13" fill="none" stroke="#ffffff" stroke-width="3" stroke-dasharray="3 3"/>
  <path d="M 109 286 Q 109 279 116 279 L 123 279 Q 130 279 130 286 L 130 292 Q 130 299 123 299 L 118 299 L 111 304 L 113 298 Q 109 296 109 292 Z" fill="#ffffff"/>
  <text class="label" x="148" y="284">Signal</text>
  <text class="small" x="148" y="306">secure chat</text>

  <rect class="tile messaging" x="252" y="250" width="126" height="82" rx="14"/>
  <rect x="282" y="271" width="41" height="41" rx="10" fill="#ffffff"/>
  <rect x="288" y="286" width="28" height="9" rx="4.5" fill="#36c5f0" transform="rotate(-90 302 290.5)"/>
  <rect x="293" y="279" width="28" height="9" rx="4.5" fill="#2eb67d"/>
  <rect x="289" y="299" width="28" height="9" rx="4.5" fill="#e01e5a"/>
  <rect x="307" y="286" width="28" height="9" rx="4.5" fill="#ecb22e" transform="rotate(90 321 290.5)"/>
  <text class="label" x="334" y="284">Slack</text>
  <text class="small" x="334" y="306">team ops</text>

  <rect class="tile messaging" x="88" y="370" width="126" height="82" rx="14"/>
  <circle cx="119" cy="411" r="20" fill="#25d366"/>
  <path d="M 107 410 Q 107 399 118 397 Q 130 396 133 408 Q 136 420 124 425 Q 119 427 113 425 L 106 428 L 109 421 Q 107 416 107 410 Z" fill="#ffffff"/>
  <path d="M 114 404 Q 118 415 127 418" fill="none" stroke="#25d366" stroke-width="3.2" stroke-linecap="round"/>
  <path d="M 113 404 L 116 402 L 119 407 L 117 409 M 124 416 L 127 414 L 131 417 L 129 421" fill="none" stroke="#25d366" stroke-width="2" stroke-linecap="round" stroke-linejoin="round"/>
  <text class="label" x="148" y="404">WhatsApp</text>
  <text class="small" x="148" y="426">mobile</text>

  <rect class="tile messaging" x="252" y="370" width="126" height="82" rx="14"/>
  <rect x="282" y="391" width="41" height="41" rx="12" fill="#1f8fff"/>
  <path d="M 292 407 Q 292 399 300 399 L 308 399 Q 316 399 316 407 L 316 411 Q 316 419 308 419 L 301 419 L 293 425 L 296 418 Q 292 416 292 411 Z" fill="#ffffff"/>
  <circle cx="300" cy="409" r="2" fill="#1f8fff"/>
  <circle cx="304" cy="409" r="2" fill="#1f8fff"/>
  <circle cx="308" cy="409" r="2" fill="#1f8fff"/>
  <text class="label" x="334" y="404">WebChat</text>
  <text class="small" x="334" y="426">browser UI</text>

  <rect class="tile messaging" x="88" y="492" width="290" height="98" rx="14"/>
  <text class="label" x="116" y="526">Mission Inputs</text>
  <text class="text" x="116" y="550">"Follow me", "inspect aisle three",</text>
  <text class="text" x="116" y="572">"what do you see?", "return home"</text>

  <rect class="panel shadow" x="468" y="144" width="414" height="826" rx="18"/>
  <text class="section" x="500" y="184">AI Agent Platforms</text>
  <text class="text" x="500" y="208">Planning, tool calls, multimodal reasoning.</text>

  <rect class="tile agent" x="508" y="248" width="152" height="84" rx="14"/>
  <circle cx="542" cy="290" r="21" fill="#1d2636"/>
  <path d="M 531 299 C 526 293 526 286 531 281 C 536 276 544 276 549 281" fill="none" stroke="#ffffff" stroke-width="3" stroke-linecap="round"/>
  <path d="M 546 279 L 555 270 M 551 284 L 562 279 M 553 291 L 565 292" stroke="#f3d274" stroke-width="3" stroke-linecap="round"/>
  <circle cx="542" cy="290" r="6" fill="none" stroke="#ffffff" stroke-width="2"/>
  <text class="label" x="574" y="284">OpenClaw</text>
  <text class="small" x="574" y="306">gateway</text>

  <rect class="tile agent" x="692" y="248" width="152" height="84" rx="14"/>
  <rect x="724" y="269" width="42" height="42" rx="10" fill="#76b900"/>
  <path d="M 731 291 C 739 280 751 279 759 291 C 752 301 739 302 731 291 Z" fill="#ffffff"/>
  <circle cx="746" cy="291" r="5" fill="#76b900"/>
  <path d="M 732 291 C 740 287 750 287 759 291" fill="none" stroke="#76b900" stroke-width="2"/>
  <text class="label" x="778" y="284">NemoClaw</text>
  <text class="small" x="778" y="306">sandbox</text>

  <rect class="tile agent" x="508" y="370" width="152" height="84" rx="14"/>
  <circle cx="542" cy="412" r="21" fill="#111827"/>
  <g fill="none" stroke="#ffffff" stroke-width="3" stroke-linecap="round">
    <path d="M 542 395 C 552 397 557 408 552 417 C 548 426 535 429 528 421"/>
    <path d="M 557 408 C 561 418 554 428 543 429 C 533 431 524 422 525 412"/>
    <path d="M 554 425 C 546 433 533 431 528 421 C 523 412 528 400 538 397"/>
    <path d="M 529 427 C 519 423 517 410 525 402 C 532 394 545 395 551 404"/>
    <path d="M 522 407 C 520 397 531 390 541 394 C 551 397 556 410 551 419"/>
    <path d="M 530 398 C 538 390 551 393 555 403 C 560 413 553 425 542 426"/>
  </g>
  <text class="label" x="574" y="404">OpenAI</text>
  <text class="small" x="574" y="426">models</text>

  <rect class="tile agent" x="692" y="370" width="152" height="84" rx="14"/>
  <circle cx="726" cy="412" r="21" fill="#b86f52"/>
  <path d="M 712 424 L 726 394 L 740 424 Z" fill="#ffffff"/>
  <path d="M 720 418 L 726 405 L 732 418 Z" fill="#b86f52"/>
  <text class="label" x="758" y="404">Claude</text>
  <text class="small" x="758" y="426">reasoning</text>

  <rect class="tile agent" x="600" y="492" width="152" height="84" rx="14"/>
  <circle cx="634" cy="534" r="21" fill="#4285f4"/>
  <path d="M 634 511 L 640 528 L 657 534 L 640 540 L 634 557 L 628 540 L 611 534 L 628 528 Z" fill="#ffffff"/>
  <path d="M 652 515 L 655 523 L 663 526 L 655 529 L 652 537 L 649 529 L 641 526 L 649 523 Z" fill="#fbbc04"/>
  <path d="M 615 516 L 618 523 L 625 526 L 618 529 L 615 536 L 612 529 L 605 526 L 612 523 Z" fill="#34a853"/>
  <text class="label" x="666" y="526">Gemini</text>
  <text class="small" x="666" y="548">multimodal</text>

  <rect class="tile agent" x="508" y="636" width="336" height="128" rx="16"/>
  <text class="label" x="536" y="670">Agent Work Loop</text>
  <text class="text" x="536" y="696">Interpret goal -> choose tools -> observe</text>
  <text class="text" x="536" y="720">state -> revise plan -> issue safe actions</text>
  <text class="small" x="536" y="748">Tool calls are routed through AgenticROS.</text>

  <rect class="panel shadow" x="930" y="120" width="410" height="872" rx="22"/>
  <rect x="980" y="185" width="310" height="236" rx="24" fill="url(#agenticrosGrad)" stroke="#d1a43b" stroke-width="2.2"/>
  <circle cx="1080" cy="303" r="62" fill="#16212f"/>
  <circle cx="1080" cy="303" r="42" fill="#f3d274"/>
  <circle cx="1080" cy="303" r="19" fill="#16212f"/>
  <path d="M 1080 241 L 1080 210 M 1080 396 L 1080 365 M 1018 303 L 987 303 M 1173 303 L 1142 303 M 1036 259 L 1013 236 M 1124 347 L 1147 370 M 1124 259 L 1147 236 M 1036 347 L 1013 370" stroke="#16212f" stroke-width="8" stroke-linecap="round"/>
  <text class="label" x="1014" y="458" font-size="30">AgenticROS</text>
  <text class="text" x="1003" y="486">Robotics runtime for agentic AI</text>

  <rect class="tile core" x="982" y="534" width="306" height="84" rx="14"/>
  <g transform="translate(1240 576)">
    <circle cx="-18" cy="-10" r="5" fill="#22314a"/>
    <circle cx="0" cy="-10" r="5" fill="#22314a"/>
    <circle cx="18" cy="-10" r="5" fill="#22314a"/>
    <circle cx="-18" cy="8" r="5" fill="#22314a"/>
    <circle cx="0" cy="8" r="5" fill="#22314a"/>
    <circle cx="18" cy="8" r="5" fill="#22314a"/>
    <path d="M -18 -10 L 0 -10 L 18 -10 M -18 8 L 0 8 L 18 8 M -18 -10 L -18 8 M 0 -10 L 0 8 M 18 -10 L 18 8" stroke="#22314a" stroke-width="2"/>
  </g>
  <text class="label" x="1010" y="566">ROS Tool Layer</text>
  <text class="text" x="1010" y="590">topics, services, actions, params</text>

  <rect class="tile core" x="982" y="646" width="306" height="84" rx="14"/>
  <g transform="translate(1244 690)" fill="none" stroke="#d6a333" stroke-width="4" stroke-linecap="round">
    <path d="M -26 8 C -12 -14 12 -14 26 8"/>
    <path d="M -16 8 C -7 -4 7 -4 16 8"/>
    <path d="M -5 8 C -2 5 2 5 5 8"/>
  </g>
  <text class="label" x="1010" y="678">Transport + Safety</text>
  <text class="text" x="1010" y="702">Zenoh, rosbridge, DDS, WebRTC</text>

  <rect class="tile skill" x="982" y="758" width="306" height="104" rx="14"/>
  <path d="M 1236 788 C 1236 780 1243 773 1251 773 C 1256 773 1260 776 1262 780 C 1264 776 1268 773 1273 773 C 1281 773 1288 780 1288 788 C 1288 806 1262 821 1262 821 C 1262 821 1236 806 1236 788 Z" fill="#8d70ca"/>
  <circle cx="1262" cy="794" r="9" fill="#f2ecff"/>
  <path d="M 1256 794 L 1268 794 M 1262 788 L 1262 800" stroke="#8d70ca" stroke-width="3" stroke-linecap="round"/>
  <text class="label" x="1010" y="790">AgenticROS Skills</text>
  <text class="text" x="1010" y="814">mission packages: follow, inspect,</text>
  <text class="text" x="1010" y="836">navigate, perceive, recover</text>

  <rect class="panel shadow" x="1388" y="144" width="360" height="826" rx="18"/>
  <text class="section" x="1420" y="184">Robot Sensing + Actuation</text>
  <text class="text" x="1420" y="208">ROS-powered hardware and autonomy stack.</text>

  <rect class="tile robot" x="1420" y="248" width="280" height="76" rx="14"/>
  <circle cx="1454" cy="286" r="20" fill="#22314a"/>
  <circle cx="1446" cy="278" r="4" fill="#ffffff"/>
  <circle cx="1454" cy="278" r="4" fill="#ffffff"/>
  <circle cx="1462" cy="278" r="4" fill="#ffffff"/>
  <circle cx="1446" cy="286" r="4" fill="#ffffff"/>
  <circle cx="1454" cy="286" r="4" fill="#ffffff"/>
  <circle cx="1462" cy="286" r="4" fill="#ffffff"/>
  <circle cx="1446" cy="294" r="4" fill="#ffffff"/>
  <circle cx="1454" cy="294" r="4" fill="#ffffff"/>
  <circle cx="1462" cy="294" r="4" fill="#ffffff"/>
  <text class="label" x="1488" y="280">Robot ROS Graph</text>
  <text class="small" x="1488" y="302">topics, services, actions</text>

  <rect class="tile device" x="1420" y="356" width="132" height="82" rx="14"/>
  <rect x="1449" y="377" width="42" height="42" rx="11" fill="#2379b5"/>
  <rect x="1458" y="389" width="24" height="18" rx="4" fill="#b9ecff"/>
  <circle cx="1470" cy="398" r="7" fill="#2379b5"/>
  <circle cx="1470" cy="398" r="3" fill="#b9ecff"/>
  <path d="M 1460 412 L 1480 412" stroke="#b9ecff" stroke-width="3" stroke-linecap="round"/>
  <text class="label" x="1502" y="390">RealSense</text>
  <text class="small" x="1502" y="412">RGB-D</text>

  <rect class="tile nvidia" x="1574" y="356" width="126" height="82" rx="14"/>
  <rect x="1603" y="377" width="42" height="42" rx="10" fill="#76b900"/>
  <path d="M 1609 398 C 1617 387 1629 386 1637 398 C 1630 408 1617 409 1609 398 Z" fill="#ffffff"/>
  <circle cx="1624" cy="398" r="5" fill="#76b900"/>
  <path d="M 1610 398 C 1618 394 1628 394 1637 398" fill="none" stroke="#76b900" stroke-width="2"/>
  <text class="label" x="1648" y="390">VSLAM</text>
  <text class="small" x="1648" y="412">pose</text>

  <rect class="tile device" x="1420" y="470" width="132" height="82" rx="14"/>
  <circle cx="1454" cy="511" r="20" fill="#db6b57"/>
  <path d="M 1440 511 L 1468 511 M 1454 497 L 1454 525" stroke="#fff" stroke-width="5" stroke-linecap="round"/>
  <text class="label" x="1488" y="504">Motors</text>
  <text class="small" x="1488" y="526">cmd_vel</text>

  <rect class="tile device" x="1574" y="470" width="126" height="82" rx="14"/>
  <rect x="1604" y="491" width="40" height="28" rx="6" fill="#4f9568"/>
  <rect x="1644" y="500" width="7" height="10" rx="2" fill="#4f9568"/>
  <text class="label" x="1660" y="504">Battery</text>
  <text class="small" x="1660" y="526">state</text>

  <rect class="tile robot" x="1420" y="610" width="280" height="112" rx="14"/>
  <path d="M 1640 660 L 1655 646 L 1670 660 L 1670 692 L 1640 692 Z" fill="#4f9568"/>
  <path d="M 1648 674 L 1656 682 L 1668 668" fill="none" stroke="#ffffff" stroke-width="4" stroke-linecap="round" stroke-linejoin="round"/>
  <text class="label" x="1448" y="644">Mission Execution</text>
  <text class="text" x="1448" y="670">Follow, inspect, navigate, monitor,</text>
  <text class="text" x="1448" y="694">report, recover, return</text>

  <rect class="tile skill" x="1420" y="774" width="280" height="104" rx="14"/>
  <path d="M 1642 823 C 1642 813 1650 805 1660 805 C 1670 805 1678 813 1678 823 C 1678 833 1670 841 1660 841 C 1650 841 1642 833 1642 823 Z" fill="#8d70ca"/>
  <path d="M 1660 806 L 1660 799 M 1660 847 L 1660 840 M 1643 823 L 1636 823 M 1684 823 L 1677 823 M 1648 811 L 1643 806 M 1677 840 L 1672 835 M 1672 811 L 1677 806 M 1643 840 L 1648 835" stroke="#8d70ca" stroke-width="3" stroke-linecap="round"/>
  <circle cx="1660" cy="823" r="7" fill="#f2ecff"/>
  <text class="label" x="1448" y="808">Feedback Loop</text>
  <text class="text" x="1448" y="834">camera, depth, pose, odometry,</text>
  <text class="text" x="1448" y="856">battery, diagnostics</text>

  <path class="line-blue" d="M 378 291 C 430 291, 450 291, 508 291" marker-end="url(#arrowBlue)"/>
  <path class="line-blue" d="M 378 411 C 430 435, 448 464, 600 534" marker-end="url(#arrowBlue)"/>
  <path class="line-blue" d="M 378 541 C 445 600, 480 656, 508 700" marker-end="url(#arrowBlue)"/>

  <path class="line-blue" d="M 844 290 C 906 290, 926 292, 980 303" marker-end="url(#arrowBlue)"/>
  <path class="line-blue" d="M 844 412 C 904 440, 930 486, 982 574" marker-end="url(#arrowBlue)"/>
  <path class="line-blue" d="M 752 534 C 840 584, 900 658, 982 688" marker-end="url(#arrowBlue)"/>
  <path class="line-blue" d="M 844 700 C 900 738, 928 784, 982 810" marker-end="url(#arrowBlue)"/>

  <path class="line-green" d="M 1288 574 C 1346 560, 1370 306, 1420 286" marker-end="url(#arrowGreen)"/>
  <path class="line-green" d="M 1288 688 C 1348 642, 1374 514, 1420 511" marker-end="url(#arrowGreen)"/>
  <path class="line-purple" d="M 1288 810 C 1350 780, 1376 678, 1420 666" marker-end="url(#arrowPurple)"/>

  <path class="line dash" d="M 1420 397 C 1350 400, 1315 516, 1288 574" marker-end="url(#arrow)"/>
  <path class="line dash" d="M 1574 397 C 1395 410, 1360 600, 1288 688" marker-end="url(#arrow)"/>
  <path class="line dash" d="M 1700 826 C 1580 934, 1250 930, 1135 862" marker-end="url(#arrow)"/>

  <rect class="tile" x="70" y="1004" width="1660" height="46" rx="12"/>
  <text class="small" x="96" y="1032">Brand names are shown as system tiles for architecture communication. Replace tiles with official logo artwork where required by partner brand guidelines.</text>
</svg>
